<?xml version="1.0" encoding="utf-8"?>
<!-- Generator: Adobe Illustrator 16.0.0, SVG Export Plug-In . SVG Version: 6.00 Build 0)  -->
<!DOCTYPE svg PUBLIC "-//W3C//DTD SVG 1.1//EN" "http://www.w3.org/Graphics/SVG/1.1/DTD/svg11.dtd">
<svg version="1.1" xmlns="http://www.w3.org/2000/svg" xmlns:xlink="http://www.w3.org/1999/xlink" x="0px" y="0px"
	 width="841.89px" height="595.275px" viewBox="-70.945 -41.138 841.89 595.275"
	 enable-background="new -70.945 -41.138 841.89 595.275" xml:space="preserve">
<g id="Scale_1_" onload="if(self.makeDraggable){makeDraggable(evt)}" xmlns:svg="http://www.w3.org/2000/svg" display="none">
	<g id="Scale" display="inline">
		<line id="scale_line" fill="none" stroke="#000000" x1="157.371" y1="494.412" x2="542.628" y2="494.412"/>
		<line id="scale_end1" fill="none" stroke="#000000" x1="157.371" y1="492.412" x2="157.371" y2="496.412"/>
		<line id="scale_end2" fill="none" stroke="#000000" x1="542.628" y1="492.412" x2="542.628" y2="496.412"/>
		<text id="scale_text" transform="matrix(1 0 0 1 335.9651 492.4121)" font-family="'Verdana'" font-size="11">1 km</text>
	</g>
</g>
<g id="Itinéraire_de" display="none">
	<g id="map:legend" display="inline">
		
			<text id="map:legend:trktrk5_label" transform="matrix(1 0 0 1 -69.0002 588.4121)" fill="#5C00CC" font-family="'Verdana-Bold'" font-size="11">Itinéraire de Partick Hill Bowling &amp; Community Club, Partickhill Road, Glasgow à 8 Burgh Hall St, Partick, Glasgow G11 5LN, Royaume-Uni</text>
		
			<text id="map:legend:trktrk4_label" transform="matrix(1 0 0 1 -69.0002 577.4121)" fill="#0087CC" font-family="'Verdana-Bold'" font-size="11">Itinéraire de 22 Athole Gardens, Glasgow G12 9BB, Royaume-Uni à 45 Partickhill Rd, Glasgow G11 5BY, Royaume-Uni</text>
		
			<text id="map:legend:trktrk3_label" transform="matrix(1 0 0 1 -69.0002 566.4121)" fill="#00CC2E" font-family="'Verdana-Bold'" font-size="11">Itinéraire de 381 Byres Rd, Glasgow G12 8AU, Royaume-Uni à 28 Athole Gardens, Glasgow G12 9BB, Royaume-Uni</text>
		
			<text id="map:legend:trktrk2_label" transform="matrix(1 0 0 1 -69.0002 555.4121)" fill="#B5CC00" font-family="'Verdana-Bold'" font-size="11">Itinéraire de 25 Mingarry Street, Kelvinside, Glasgow à 381 Byres Rd, Glasgow G12 8AU, Royaume-Uni</text>
		
			<text id="map:legend:trktrk1_label" transform="matrix(1 0 0 1 -69.0002 544.4121)" fill="#CC0000" font-family="'Verdana-Bold'" font-size="11">Itinéraire de 381 Byres Rd, Glasgow G12 8AU, Royaume-Uni à 8 Burgh Hall St, Partick, Glasgow G11 5LN, Royaume-Uni</text>
		<text id="map:legend:header" transform="matrix(1 0 0 1 -69.0002 530.6621)" font-family="'Verdana-Bold'" font-size="11">Tracks:</text>
	</g>
</g>
<g id="Byres_to_Partick_Burgh" display="none">
	
		<g id="trk1:Itin_raire_de_381_Byres_Rd__Glasgow_G12_8AU__Royaume_Uni___8_Burgh_Hall_St__Partick__Glasgow_G11_5LN__Royaume_Uni_1_" display="inline">
		<polyline id="trk1:p211_1_" fill="none" stroke="#CC0000" stroke-width="2" stroke-linejoin="round" points="514.396,216.818 
			509.117,213.826 471.691,190.745 461.373,184.333 452.497,198.866 441.7,216.391 435.224,212.116 428.506,208.269 
			409.073,195.874 403.794,192.882 401.635,190.745 400.436,189.035 398.036,186.043 393.958,186.898 392.278,187.325 
			388.44,188.608 386.281,189.035 384.121,189.89 381.962,191.172 379.563,192.455 377.404,193.309 375.244,194.592 
			372.845,195.447 370.926,196.301 369.006,196.729 366.607,197.584 364.688,197.584 362.289,198.011 360.369,198.439 
			358.93,198.439 357.97,198.439 357.73,199.293 358.21,204.423 357.73,204.85 357.251,205.277 348.853,219.383 348.134,220.237 
			347.174,221.52 345.974,222.375 347.654,223.657 358.93,230.496 368.767,236.907 371.166,238.617 375.244,241.181 
			375.964,243.319 376.684,245.028 377.404,246.311 378.363,247.593 379.323,248.875 380.282,250.157 366.607,241.609 
			363.728,245.883 362.049,248.875 357.97,255.287 350.532,268.109 349.093,266.827 342.376,262.98 339.977,268.537 
			339.497,269.818 339.017,271.956 337.817,277.514 334.458,292.045 337.817,277.514 339.017,271.956 339.497,269.818 
			339.977,268.537 342.376,262.98 338.537,260.416 329.18,254.859 327.981,257.424 326.301,265.117 319.104,297.174 
			319.104,299.739 317.904,304.868 311.187,336.07 309.027,345.901 298.711,344.619 297.991,347.611 293.673,349.321 
			291.034,350.176 288.155,351.458 285.995,352.312 284.556,353.168 283.356,353.595 282.636,354.45 282.157,354.877 
			281.437,355.732 280.957,357.442 280.477,358.724 279.518,359.152 278.558,360.006 277.358,360.434 276.159,360.434 
			274.959,360.861 273.76,360.861 272.32,360.861 271.12,360.861 269.921,366.845 256.965,363.853 256.725,365.562 256.486,367.273 
			254.326,377.103 254.086,377.531 253.846,377.958 252.167,379.668 251.687,378.812 250.728,377.103 246.169,370.265 
			243.29,371.119 242.33,371.547 241.131,371.547 236.333,371.119 229.615,370.692 226.256,370.692 222.656,370.265 
			217.859,369.837 207.303,368.128 191.948,365.99 161.479,362.144 153.081,360.861 148.763,360.434 135.807,358.724 
			130.529,357.869 128.13,357.869 129.33,344.192 129.33,342.909 129.09,341.627 128.61,341.2 128.37,340.345 127.65,339.917 
			126.691,339.062 125.731,338.635 124.531,338.208 123.092,338.208 114.935,338.208 113.975,337.78 113.255,337.78 109.656,336.07 
			106.058,334.361 104.618,333.933 103.419,333.506 102.699,333.078 96.461,331.796 95.262,331.369 95.022,332.224 93.582,332.224 
			86.385,326.24 81.346,324.957 80.387,324.957 79.906,325.385 78.707,325.812 76.788,327.522 76.308,327.949 75.109,328.804 
			74.149,329.232 73.189,329.659 71.99,330.086 70.31,330.086 68.631,330.086 67.671,330.514 67.191,330.941 66.951,331.796 
			66.951,332.651 66.951,333.078 67.911,336.925 68.151,337.353 68.151,337.78 67.911,338.208 65.992,339.917 66.951,341.2 
			68.151,342.909 63.593,345.901 62.633,346.756 60.953,347.611 60.234,348.466 59.754,349.321 59.274,350.603 59.034,351.458 
			58.794,351.458 58.554,353.168 58.314,355.305 58.314,357.442 58.314,359.579 58.314,361.289 58.554,362.998 58.314,363.853 
			58.074,364.708 57.595,365.99 56.875,366.845 56.155,368.128 54.476,370.265 52.796,372.829 48.238,379.241 43.919,385.652 
			44.159,386.507 44.399,387.789 44.399,389.926 44.399,391.209 44.399,392.062 43.919,395.055 43.44,397.62 43.2,398.902 
			42.72,400.612 42.24,401.894 42.24,403.604 42,404.459 42.24,405.314 42.48,406.596 50.157,436.089 60.474,475.412 
			86.625,473.275 		"/>
	</g>
	<g id="trk1:label" display="inline">
		<text id="trk1:name" transform="matrix(1 0 0 1 -195.0447 116.8184)" fill="#CC0000" font-family="'Verdana'" font-size="11">Itinéraire de 381 Byres Rd, Glasgow G12 8AU, Royaume-Uni à 8 Burgh Hall St, Partick, Glasgow G11 5LN, Royaume-Uni</text>
	</g>
</g>
<g id="Partickhill" display="none">
	
		<g id="trk5:Itin_raire_de_Partick_Hill_Bowling___Community_Club__Partickhill_Road__Glasgow___8_Burgh_Hall_St__Partick__Glasgow_G11_5LN__Royaume_Uni_1_" display="inline">
		<polyline id="trk5:p85_1_" fill="none" stroke="#5C00CC" stroke-width="2" stroke-linejoin="round" points="129.33,343.764 
			129.33,342.054 128.37,340.345 127.65,339.917 126.691,339.062 125.731,338.635 124.531,338.208 123.092,338.208 114.935,338.208 
			113.975,337.78 113.255,337.78 109.656,336.07 106.058,334.361 104.618,333.933 103.419,333.506 102.699,333.078 97.421,331.796 
			96.461,331.796 95.262,331.369 95.022,332.224 93.582,332.224 86.385,326.24 81.346,324.957 80.387,324.957 79.906,325.385 
			78.707,325.812 76.788,327.522 76.308,327.949 75.109,328.804 74.149,329.232 73.189,329.659 71.99,330.086 70.31,330.086 
			68.151,330.086 67.191,330.941 66.951,331.796 66.951,332.651 66.951,333.078 67.911,336.925 68.151,337.353 68.151,337.78 
			67.911,338.208 65.992,339.917 66.951,341.2 68.151,342.909 63.593,345.901 62.633,346.756 60.953,347.611 60.234,348.466 
			59.754,349.321 59.274,350.603 59.034,351.458 58.794,351.458 58.554,353.168 58.314,355.305 58.314,357.442 58.314,359.579 
			58.314,361.289 58.554,362.998 58.314,363.853 58.074,364.708 57.595,365.99 56.875,366.845 56.155,368.128 54.476,370.265 
			52.796,372.829 48.238,379.241 43.919,385.652 44.159,386.507 44.399,387.789 44.399,389.926 44.399,391.209 44.399,392.062 
			43.919,395.055 43.44,397.62 43.2,398.902 42.72,400.612 42.24,401.894 42.24,403.604 42,404.459 42.24,405.314 42.48,406.596 
			50.157,436.089 60.474,475.412 86.625,473.275 		"/>
	</g>
	<g id="trk5:label" display="inline">
		<text id="trk5:name" transform="matrix(1 0 0 1 -708.343 319.9727)" fill="#5C00CC" font-family="'Verdana'" font-size="11">Itinéraire de Partick Hill Bowling &amp; Community Club, Partickhill Road, Glasgow à 8 Burgh Hall St, Partick, Glasgow G11 5LN, Royaume-Uni</text>
	</g>
</g>
<g id="_x32_2_Athole_Gardens" display="none">
	
		<g id="trk4:Itin_raire_de_22_Athole_Gardens__Glasgow_G12_9BB__Royaume_Uni___45_Partickhill_Rd__Glasgow_G11_5BY__Royaume_Uni_1_" display="inline">
		<polyline id="trk4:p73_1_" fill="none" stroke="#0087CC" stroke-width="2" stroke-linejoin="round" points="366.607,241.609 
			363.728,245.883 362.049,248.875 357.97,255.287 350.532,268.109 349.093,266.827 342.376,262.98 339.977,268.537 
			339.497,269.818 339.017,271.956 337.817,277.514 334.458,292.045 337.817,277.514 339.017,271.956 339.497,269.818 
			339.977,268.537 342.376,262.98 338.537,260.416 329.18,254.859 327.981,257.424 326.301,265.117 319.104,297.174 
			319.104,299.739 317.904,304.868 311.187,336.07 309.027,345.901 298.711,344.619 297.991,347.611 293.673,349.321 
			291.034,350.176 288.155,351.458 285.995,352.312 284.556,353.168 283.356,353.595 282.636,354.45 282.157,354.877 
			281.437,355.732 280.957,357.442 280.477,358.724 279.518,359.152 278.558,360.006 277.358,360.434 276.159,360.434 
			274.959,360.861 273.76,360.861 272.32,360.861 271.12,360.861 269.921,366.845 256.965,363.853 256.725,365.562 256.486,367.273 
			254.326,377.103 254.086,377.531 253.846,377.958 252.167,379.668 251.687,378.812 250.728,377.103 246.169,370.265 
			243.29,371.119 241.851,371.547 236.333,371.119 229.615,370.692 226.256,370.692 222.656,370.265 217.859,369.837 
			207.303,368.128 191.948,365.99 161.479,362.144 153.081,360.861 148.763,360.434 135.807,358.724 130.529,357.869 
			128.13,357.869 		"/>
	</g>
	<g id="trk4:label" display="inline">
		<text id="trk4:name" transform="matrix(1 0 0 1 -318.9958 239.6089)" fill="#0087CC" font-family="'Verdana'" font-size="11">Itinéraire de 22 Athole Gardens, Glasgow G12 9BB, Royaume-Uni à 45 Partickhill Rd, Glasgow G11 5BY, Royaume-Uni</text>
	</g>
</g>
<g id="_x33_81_Byres_Rd" display="none">
	
		<g id="trk3:Itin_raire_de_381_Byres_Rd__Glasgow_G12_8AU__Royaume_Uni___28_Athole_Gardens__Glasgow_G12_9BB__Royaume_Uni_1_" display="inline">
		<polyline id="trk3:p51_1_" fill="none" stroke="#00CC2E" stroke-width="2" stroke-linejoin="round" points="514.396,216.818 
			509.117,213.826 471.691,190.745 461.373,184.333 452.497,198.866 444.82,211.261 441.7,216.391 435.224,212.116 428.506,208.269 
			409.073,195.874 403.794,192.882 401.635,190.745 400.436,189.035 398.036,186.043 393.958,186.898 392.278,187.325 
			388.44,188.608 386.281,189.035 384.121,189.89 381.962,191.172 379.563,192.455 377.404,193.309 375.244,194.592 
			372.845,195.447 370.926,196.301 369.006,196.729 366.607,197.584 364.688,197.584 362.289,198.011 360.369,198.439 
			358.93,198.439 357.97,198.439 357.73,199.293 358.21,204.423 357.73,204.85 357.251,205.277 348.853,219.383 348.134,220.237 
			347.174,221.52 345.974,222.375 347.654,223.657 358.93,230.496 368.767,236.907 371.166,238.617 375.244,241.181 
			375.964,243.319 376.684,245.028 377.404,246.311 378.363,247.593 379.323,248.875 380.282,250.157 		"/>
	</g>
	<g id="trk3:label" display="inline">
		<text id="trk3:name" transform="matrix(1 0 0 1 521.0901 226.5)" fill="#00CC2E" font-family="'Verdana'" font-size="11">Itinéraire de 381 Byres Rd, Glasgow G12 8AU, Royaume-Uni à 28 Athole Gardens, Glasgow G12 9BB, Royaume-Uni</text>
	</g>
</g>
<g id="_x32_5_Mingarry_Street" display="none">
	
		<g id="trk2:Itin_raire_de_25_Mingarry_Street__Kelvinside__Glasgow___381_Byres_Rd__Glasgow_G12_8AU__Royaume_Uni_2_" display="inline">
		<polyline id="trk2:p53_2_" fill="none" stroke="#B5CC00" stroke-width="2" stroke-linejoin="round" points="658.825,42 
			644.671,62.089 640.592,68.073 636.033,74.485 647.07,82.178 648.989,83.461 655.227,87.735 661.465,92.009 661.945,92.436 
			657.146,99.275 654.507,102.695 653.068,104.832 651.388,106.969 648.509,109.961 642.512,115.518 639.633,117.655 
			625.717,128.34 608.443,140.736 602.205,145.01 600.526,146.292 598.847,147.575 597.166,149.284 595.488,150.994 
			594.048,152.704 592.849,154.414 591.649,156.551 590.929,157.833 586.611,165.527 578.694,176.212 578.453,176.64 
			578.214,177.067 578.214,177.495 576.295,180.059 569.576,185.188 568.616,186.043 567.178,187.325 562.139,189.463 
			555.902,192.455 549.663,195.019 548.464,195.447 547.505,195.874 545.345,196.301 541.746,197.156 537.428,198.866 
			535.269,199.293 534.309,199.721 533.11,200.148 531.67,201.003 529.99,202.285 529.031,202.713 522.313,209.124 518.475,212.971 
			514.396,216.818 		"/>
	</g>
	<g id="trk2:label" display="inline">
		<text id="trk2:name" transform="matrix(1 0 0 1 75.2688 40)" fill="#B5CC00" font-family="'Verdana'" font-size="11">Itinéraire de 25 Mingarry Street, Kelvinside, Glasgow à 381 Byres Rd, Glasgow G12 8AU, Royaume-Uni</text>
	</g>
</g>
<g id="street_names" display="none">
	<g id="Waypoints" display="inline">
		<circle id="wpt1:marker" fill-opacity="0" stroke="#000000" cx="512.315" cy="214.869" r="3"/>
		<g id="wpt1:label">
			<text id="wpt1:name" transform="matrix(1 0 0 1 517.3147 214.8691)" font-family="'Verdana'" font-size="11">381 Byres Rd, Glasgow G12 8AU, Royaume-Uni</text>
		</g>
		<circle id="wpt2:marker" fill-opacity="0" stroke="#000000" cx="84.533" cy="471.454" r="3"/>
		<g id="wpt2:label">
			<text id="wpt2:name" transform="matrix(1 0 0 1 89.533 471.4541)" font-family="'Verdana'" font-size="11">8 Burgh Hall St, Partick, Glasgow G11 5LN, Royaume-Uni</text>
		</g>
		<circle id="wpt3:marker" fill-opacity="0" stroke="#000000" cx="656.924" cy="40.064" r="3"/>
		<g id="wpt3:label">
			<text id="wpt3:name" transform="matrix(1 0 0 1 661.9241 40.0645)" font-family="'Verdana'" font-size="11">25 Mingarry Street, Kelvinside, Glasgow</text>
		</g>
		<circle id="wpt4:marker" fill-opacity="0" stroke="#000000" cx="634.129" cy="72.296" r="3"/>
		<g id="wpt4:label">
			<text id="wpt4:name" transform="matrix(1 0 0 1 639.1292 72.2969)" font-family="'Verdana'" font-size="11">17 Clouston St, Kelvinside, Glasgow G20 8QR, Royaume-Uni</text>
		</g>
		<circle id="wpt5:marker" fill-opacity="0" stroke="#000000" cx="660" cy="90.492" r="3"/>
		<g id="wpt5:label">
			<text id="wpt5:name" transform="matrix(1 0 0 1 665.0002 90.4922)" font-family="'Verdana'" font-size="11">Fergus Drive, Glasgow G20 6AX, Royaume-Uni</text>
		</g>
		<circle id="wpt6:marker" fill-opacity="0" stroke="#000000" cx="589.615" cy="154.448" r="3"/>
		<g id="wpt6:label">
			<text id="wpt6:name" transform="matrix(1 0 0 1 594.6155 154.4482)" font-family="'Verdana'" font-size="11">Botanic Gardens, Glasgow G12 8DH, Royaume-Uni</text>
		</g>
		<circle id="wpt7:marker" fill-opacity="0" stroke="#000000" cx="533.163" cy="197.503" r="3"/>
		<g id="wpt7:label">
			<text id="wpt7:name" transform="matrix(1 0 0 1 538.1624 197.5029)" font-family="'Verdana'" font-size="11">West Lodge, 730D Great Western Rd, Glasgow G12 0UE, Royaume-Uni</text>
		</g>
		<circle id="wpt8:marker" fill-opacity="0" stroke="#000000" cx="512.315" cy="214.869" r="3"/>
		<g id="wpt8:label">
			<text id="wpt8:name" transform="matrix(1 0 0 1 517.3147 214.8691)" font-family="'Verdana'" font-size="11">381 Byres Rd, Glasgow G12 8AU, Royaume-Uni</text>
		</g>
		<circle id="wpt9:marker" fill-opacity="0" stroke="#000000" cx="459.483" cy="182.167" r="3"/>
		<g id="wpt9:label">
			<text id="wpt9:name" transform="matrix(1 0 0 1 464.4827 182.167)" font-family="'Verdana'" font-size="11">2a Kew Ln, Glasgow G12 9AG, Royaume-Uni</text>
		</g>
		<circle id="wpt10:marker" fill-opacity="0" stroke="#000000" cx="442.743" cy="209.262" r="3"/>
		<g id="wpt10:label">
			<text id="wpt10:name" transform="matrix(1 0 0 1 447.7434 209.2617)" font-family="'Verdana'" font-size="11">Kelvinside Hillhead Parish Church, Saltoun Street, Glasgow</text>
		</g>
		<circle id="wpt11:marker" fill-opacity="0" stroke="#000000" cx="439.662" cy="214.224" r="3"/>
		<g id="wpt11:label">
			<text id="wpt11:name" transform="matrix(1 0 0 1 444.6624 214.2236)" font-family="'Verdana'" font-size="11">27 Saltoun St, Glasgow G12 9AJ, Royaume-Uni</text>
		</g>
		<circle id="wpt12:marker" fill-opacity="0" stroke="#000000" cx="395.993" cy="183.898" r="3"/>
		<g id="wpt12:label">
			<text id="wpt12:name" transform="matrix(1 0 0 1 400.9924 183.8975)" font-family="'Verdana'" font-size="11">34 Huntly Gardens, Glasgow G12 9AX, Royaume-Uni</text>
		</g>
		<circle id="wpt13:marker" fill-opacity="0" stroke="#000000" cx="355.942" cy="196.537" r="3"/>
		<g id="wpt13:label">
			<text id="wpt13:name" transform="matrix(1 0 0 1 360.9417 196.5371)" font-family="'Verdana'" font-size="11">1 Dundonald Rd, Glasgow G12 9LJ, Royaume-Uni</text>
		</g>
		<circle id="wpt14:marker" fill-opacity="0" stroke="#000000" cx="356.167" cy="202.457" r="3"/>
		<g id="wpt14:label">
			<text id="wpt14:name" transform="matrix(1 0 0 1 361.1663 202.457)" font-family="'Verdana'" font-size="11">10 Marchmont Terrace, Glasgow G12 9LS, Royaume-Uni</text>
		</g>
		<circle id="wpt15:marker" fill-opacity="0" stroke="#000000" cx="343.876" cy="220.464" r="3"/>
		<g id="wpt15:label">
			<text id="wpt15:name" transform="matrix(1 0 0 1 348.8757 220.4639)" font-family="'Verdana'" font-size="11">7 Bowmont Terrace, Glasgow G12 9LP, Royaume-Uni</text>
		</g>
		<circle id="wpt16:marker" fill-opacity="0" stroke="#000000" cx="373.35" cy="239.147" r="3"/>
		<g id="wpt16:label">
			<text id="wpt16:name" transform="matrix(1 0 0 1 378.3499 239.1475)" font-family="'Verdana'" font-size="11">24 Athole Gardens, Glasgow G12 9BB, Royaume-Uni</text>
		</g>
		<circle id="wpt17:marker" fill-opacity="0" stroke="#000000" cx="378.335" cy="248.247" r="3"/>
		<g id="wpt17:label">
			<text id="wpt17:name" transform="matrix(1 0 0 1 383.3352 248.2471)" font-family="'Verdana'" font-size="11">28 Athole Gardens, Glasgow G12 9BB, Royaume-Uni</text>
		</g>
		<circle id="wpt18:marker" fill-opacity="0" stroke="#000000" cx="364.502" cy="239.626" r="3"/>
		<g id="wpt18:label">
			<text id="wpt18:name" transform="matrix(1 0 0 1 369.5022 239.626)" font-family="'Verdana'" font-size="11">22 Athole Gardens, Glasgow G12 9BB, Royaume-Uni</text>
		</g>
		<circle id="wpt19:marker" fill-opacity="0" stroke="#000000" cx="348.451" cy="265.955" r="3"/>
		<g id="wpt19:label">
			<text id="wpt19:name" transform="matrix(1 0 0 1 353.4514 265.9551)" font-family="'Verdana'" font-size="11">33 Victoria Cres Rd, Glasgow G12 9DD, Royaume-Uni</text>
		</g>
		<circle id="wpt20:marker" fill-opacity="0" stroke="#000000" cx="332.509" cy="289.964" r="3"/>
		<g id="wpt20:label">
			<text id="wpt20:name" transform="matrix(1 0 0 1 337.5085 289.9639)" font-family="'Verdana'" font-size="11">50 Dowanside Rd, Glasgow G12 9DW, Royaume-Uni</text>
		</g>
		<circle id="wpt21:marker" fill-opacity="0" stroke="#000000" cx="327.161" cy="252.692" r="3"/>
		<g id="wpt21:label">
			<text id="wpt21:name" transform="matrix(1 0 0 1 332.1609 252.6924)" font-family="'Verdana'" font-size="11">48 Victoria Cres Rd, Glasgow G12 9DE, Royaume-Uni</text>
		</g>
		<circle id="wpt22:marker" fill-opacity="0" stroke="#000000" cx="307.068" cy="343.815" r="3"/>
		<g id="wpt22:label">
			<text id="wpt22:name" transform="matrix(1 0 0 1 312.0676 343.8154)" font-family="'Verdana'" font-size="11">78 Dowanhill St, Glasgow G12 9EG, Royaume-Uni</text>
		</g>
		<circle id="wpt23:marker" fill-opacity="0" stroke="#000000" cx="279.468" cy="353.762" r="3"/>
		<g id="wpt23:label">
			<text id="wpt23:name" transform="matrix(1 0 0 1 284.468 353.7617)" font-family="'Verdana'" font-size="11">Dowanhill Park, Havelock Street, Glasgow</text>
		</g>
		<circle id="wpt24:marker" fill-opacity="0" stroke="#000000" cx="254.912" cy="362.05" r="3"/>
		<g id="wpt24:label">
			<text id="wpt24:name" transform="matrix(1 0 0 1 259.9124 362.0498)" font-family="'Verdana'" font-size="11">93-95 Hyndland St, Glasgow G11 5PU, Royaume-Uni</text>
		</g>
		<circle id="wpt25:marker" fill-opacity="0" stroke="#000000" cx="250.116" cy="377.646" r="3"/>
		<g id="wpt25:label">
			<text id="wpt25:name" transform="matrix(1 0 0 1 255.1165 377.6465)" font-family="'Verdana'" font-size="11">91 Hyndland St, Glasgow G11 5PU, Royaume-Uni</text>
		</g>
		<circle id="wpt26:marker" fill-opacity="0" stroke="#000000" cx="244.198" cy="368.063" r="3"/>
		<g id="wpt26:label">
			<text id="wpt26:name" transform="matrix(1 0 0 1 249.1975 368.0635)" font-family="'Verdana'" font-size="11">1 Partickhill Rd, Glasgow G11 5BL, Royaume-Uni</text>
		</g>
		<circle id="wpt27:marker" fill-opacity="0" stroke="#000000" cx="126.209" cy="355.779" r="3"/>
		<g id="wpt27:label">
			<text id="wpt27:name" transform="matrix(1 0 0 1 131.2092 355.7793)" font-family="'Verdana'" font-size="11">45 Partickhill Rd, Glasgow G11 5BY, Royaume-Uni</text>
		</g>
		<circle id="wpt28:marker" fill-opacity="0" stroke="#000000" cx="127.303" cy="341.688" r="3"/>
		<g id="wpt28:label">
			<text id="wpt28:name" transform="matrix(1 0 0 1 132.303 341.6875)" font-family="'Verdana'" font-size="11">Partick Hill Bowling &amp; Community Club, Partickhill Road, Glasgow</text>
		</g>
		<circle id="wpt29:marker" fill-opacity="0" stroke="#000000" cx="112.021" cy="335.973" r="3"/>
		<g id="wpt29:label">
			<text id="wpt29:name" transform="matrix(1 0 0 1 117.0203 335.9727)" font-family="'Verdana'" font-size="11">Partickhill Court, Glasgow</text>
		</g>
		<circle id="wpt30:marker" fill-opacity="0" stroke="#000000" cx="95.39" cy="329.925" r="3"/>
		<g id="wpt30:label">
			<text id="wpt30:name" transform="matrix(1 0 0 1 100.3894 329.9248)" font-family="'Verdana'" font-size="11">16 Partickhill Ct, Glasgow G11 5BA, Royaume-Uni</text>
		</g>
		<circle id="wpt31:marker" fill-opacity="0" stroke="#000000" cx="63.95" cy="337.742" r="3"/>
		<g id="wpt31:label">
			<text id="wpt31:name" transform="matrix(1 0 0 1 68.9504 337.7422)" font-family="'Verdana'" font-size="11">60 Partickhill Rd, Glasgow G11 5AB, Royaume-Uni</text>
		</g>
		<circle id="wpt32:marker" fill-opacity="0" stroke="#000000" cx="66.269" cy="340.986" r="3"/>
		<g id="wpt32:label">
			<text id="wpt32:name" transform="matrix(1 0 0 1 71.2683 340.9863)" font-family="'Verdana'" font-size="11">63A Partickhill Rd, Glasgow G11 5AB, Royaume-Uni</text>
		</g>
		<circle id="wpt33:marker" fill-opacity="0" stroke="#000000" cx="41.847" cy="383.618" r="3"/>
		<g id="wpt33:label">
			<text id="wpt33:name" transform="matrix(1 0 0 1 46.8469 383.6182)" font-family="'Verdana'" font-size="11">72 Peel St, Glasgow G11 5LR, Royaume-Uni</text>
		</g>
		<circle id="wpt34:marker" fill-opacity="0" stroke="#000000" cx="58.449" cy="473.326" r="3"/>
		<g id="wpt34:label">
			<text id="wpt34:name" transform="matrix(1 0 0 1 63.4495 473.3262)" font-family="'Verdana'" font-size="11">13 Burgh Hall St, Partick, Glasgow G11 5LN, Royaume-Uni</text>
		</g>
		<circle id="wpt35:marker" fill-opacity="0" stroke="#000000" cx="84.533" cy="471.454" r="3"/>
		<g id="wpt35:label">
			<text id="wpt35:name" transform="matrix(1 0 0 1 89.533 471.4541)" font-family="'Verdana'" font-size="11">8 Burgh Hall St, Partick, Glasgow G11 5LN, Royaume-Uni</text>
		</g>
	</g>
</g>
<g id="Calque_9">
	<g display="none">
		
			<g id="trk1:Itin_raire_de_381_Byres_Rd__Glasgow_G12_8AU__Royaume_Uni___8_Burgh_Hall_St__Partick__Glasgow_G11_5LN__Royaume_Uni" display="inline">
			<polyline id="trk1:p211" fill="none" stroke="#CC0000" stroke-width="2" stroke-linejoin="round" points="514.396,216.818 
				509.117,213.826 471.691,190.745 461.373,184.333 452.497,198.866 441.7,216.391 435.224,212.116 428.506,208.269 
				409.073,195.874 403.794,192.882 401.635,190.745 400.436,189.035 398.036,186.043 393.958,186.898 392.278,187.325 
				388.44,188.608 386.281,189.035 384.121,189.89 381.962,191.172 379.563,192.455 377.404,193.309 375.244,194.592 
				372.845,195.447 370.926,196.301 369.006,196.729 366.607,197.584 364.688,197.584 362.289,198.011 360.369,198.439 
				358.93,198.439 357.97,198.439 357.73,199.293 358.21,204.423 357.73,204.85 357.251,205.277 348.853,219.383 348.134,220.237 
				347.174,221.52 345.974,222.375 347.654,223.657 358.93,230.496 368.767,236.907 371.166,238.617 375.244,241.181 
				375.964,243.319 376.684,245.028 377.404,246.311 378.363,247.593 379.323,248.875 380.282,250.157 366.607,241.609 
				363.728,245.883 362.049,248.875 357.97,255.287 350.532,268.109 349.093,266.827 342.376,262.98 339.977,268.537 
				339.497,269.818 339.017,271.956 337.817,277.514 334.458,292.045 337.817,277.514 339.017,271.956 339.497,269.818 
				339.977,268.537 342.376,262.98 338.537,260.416 329.18,254.859 327.981,257.424 326.301,265.117 319.104,297.174 
				319.104,299.739 317.904,304.868 311.187,336.07 309.027,345.901 298.711,344.619 297.991,347.611 293.673,349.321 
				291.034,350.176 288.155,351.458 285.995,352.312 284.556,353.168 283.356,353.595 282.636,354.45 282.157,354.877 
				281.437,355.732 280.957,357.442 280.477,358.724 279.518,359.152 278.558,360.006 277.358,360.434 276.159,360.434 
				274.959,360.861 273.76,360.861 272.32,360.861 271.12,360.861 269.921,366.845 256.965,363.853 256.725,365.562 
				256.486,367.273 254.326,377.103 254.086,377.531 253.846,377.958 252.167,379.668 251.687,378.812 250.728,377.103 
				246.169,370.265 243.29,371.119 242.33,371.547 241.131,371.547 236.333,371.119 229.615,370.692 226.256,370.692 
				222.656,370.265 217.859,369.837 207.303,368.128 191.948,365.99 161.479,362.144 153.081,360.861 148.763,360.434 
				135.807,358.724 130.529,357.869 128.13,357.869 129.33,344.192 129.33,342.909 129.09,341.627 128.61,341.2 128.37,340.345 
				127.65,339.917 126.691,339.062 125.731,338.635 124.531,338.208 123.092,338.208 114.935,338.208 113.975,337.78 
				113.255,337.78 109.656,336.07 106.058,334.361 104.618,333.933 103.419,333.506 102.699,333.078 96.461,331.796 95.262,331.369 
				95.022,332.224 93.582,332.224 86.385,326.24 81.346,324.957 80.387,324.957 79.906,325.385 78.707,325.812 76.788,327.522 
				76.308,327.949 75.109,328.804 74.149,329.232 73.189,329.659 71.99,330.086 70.31,330.086 68.631,330.086 67.671,330.514 
				67.191,330.941 66.951,331.796 66.951,332.651 66.951,333.078 67.911,336.925 68.151,337.353 68.151,337.78 67.911,338.208 
				65.992,339.917 66.951,341.2 68.151,342.909 63.593,345.901 62.633,346.756 60.953,347.611 60.234,348.466 59.754,349.321 
				59.274,350.603 59.034,351.458 58.794,351.458 58.554,353.168 58.314,355.305 58.314,357.442 58.314,359.579 58.314,361.289 
				58.554,362.998 58.314,363.853 58.074,364.708 57.595,365.99 56.875,366.845 56.155,368.128 54.476,370.265 52.796,372.829 
				48.238,379.241 43.919,385.652 44.159,386.507 44.399,387.789 44.399,389.926 44.399,391.209 44.399,392.062 43.919,395.055 
				43.44,397.62 43.2,398.902 42.72,400.612 42.24,401.894 42.24,403.604 42,404.459 42.24,405.314 42.48,406.596 50.157,436.089 
				60.474,475.412 86.625,473.275 			"/>
		</g>
		
			<g id="trk5:Itin_raire_de_Partick_Hill_Bowling___Community_Club__Partickhill_Road__Glasgow___8_Burgh_Hall_St__Partick__Glasgow_G11_5LN__Royaume_Uni_2_" display="inline">
			<polyline id="trk5:p85_2_" fill="none" stroke="#5C00CC" stroke-width="2" stroke-linejoin="round" points="129.33,343.764 
				129.33,342.054 128.37,340.345 127.65,339.917 126.691,339.062 125.731,338.635 124.531,338.208 123.092,338.208 
				114.935,338.208 113.975,337.78 113.255,337.78 109.656,336.07 106.058,334.361 104.618,333.933 103.419,333.506 
				102.699,333.078 97.421,331.796 96.461,331.796 95.262,331.369 95.022,332.224 93.582,332.224 86.385,326.24 81.346,324.957 
				80.387,324.957 79.906,325.385 78.707,325.812 76.788,327.522 76.308,327.949 75.109,328.804 74.149,329.232 73.189,329.659 
				71.99,330.086 70.31,330.086 68.151,330.086 67.191,330.941 66.951,331.796 66.951,332.651 66.951,333.078 67.911,336.925 
				68.151,337.353 68.151,337.78 67.911,338.208 65.992,339.917 66.951,341.2 68.151,342.909 63.593,345.901 62.633,346.756 
				60.953,347.611 60.234,348.466 59.754,349.321 59.274,350.603 59.034,351.458 58.794,351.458 58.554,353.168 58.314,355.305 
				58.314,357.442 58.314,359.579 58.314,361.289 58.554,362.998 58.314,363.853 58.074,364.708 57.595,365.99 56.875,366.845 
				56.155,368.128 54.476,370.265 52.796,372.829 48.238,379.241 43.919,385.652 44.159,386.507 44.399,387.789 44.399,389.926 
				44.399,391.209 44.399,392.062 43.919,395.055 43.44,397.62 43.2,398.902 42.72,400.612 42.24,401.894 42.24,403.604 42,404.459 
				42.24,405.314 42.48,406.596 50.157,436.089 60.474,475.412 86.625,473.275 			"/>
		</g>
		
			<g id="trk4:Itin_raire_de_22_Athole_Gardens__Glasgow_G12_9BB__Royaume_Uni___45_Partickhill_Rd__Glasgow_G11_5BY__Royaume_Uni" display="inline">
			<polyline id="trk4:p73" fill="none" stroke="#0087CC" stroke-width="2" stroke-linejoin="round" points="366.607,241.609 
				363.728,245.883 362.049,248.875 357.97,255.287 350.532,268.109 349.093,266.827 342.376,262.98 339.977,268.537 
				339.497,269.818 339.017,271.956 337.817,277.514 334.458,292.045 337.817,277.514 339.017,271.956 339.497,269.818 
				339.977,268.537 342.376,262.98 338.537,260.416 329.18,254.859 327.981,257.424 326.301,265.117 319.104,297.174 
				319.104,299.739 317.904,304.868 311.187,336.07 309.027,345.901 298.711,344.619 297.991,347.611 293.673,349.321 
				291.034,350.176 288.155,351.458 285.995,352.312 284.556,353.168 283.356,353.595 282.636,354.45 282.157,354.877 
				281.437,355.732 280.957,357.442 280.477,358.724 279.518,359.152 278.558,360.006 277.358,360.434 276.159,360.434 
				274.959,360.861 273.76,360.861 272.32,360.861 271.12,360.861 269.921,366.845 256.965,363.853 256.725,365.562 
				256.486,367.273 254.326,377.103 254.086,377.531 253.846,377.958 252.167,379.668 251.687,378.812 250.728,377.103 
				246.169,370.265 243.29,371.119 241.851,371.547 236.333,371.119 229.615,370.692 226.256,370.692 222.656,370.265 
				217.859,369.837 207.303,368.128 191.948,365.99 161.479,362.144 153.081,360.861 148.763,360.434 135.807,358.724 
				130.529,357.869 128.13,357.869 			"/>
		</g>
		
			<g id="trk3:Itin_raire_de_381_Byres_Rd__Glasgow_G12_8AU__Royaume_Uni___28_Athole_Gardens__Glasgow_G12_9BB__Royaume_Uni_2_" display="inline">
			<polyline id="trk3:p51_2_" fill="none" stroke="#00CC2E" stroke-width="2" stroke-linejoin="round" points="514.396,216.818 
				509.117,213.826 471.691,190.745 461.373,184.333 452.497,198.866 444.82,211.261 441.7,216.391 435.224,212.116 
				428.506,208.269 409.073,195.874 403.794,192.882 401.635,190.745 400.436,189.035 398.036,186.043 393.958,186.898 
				392.278,187.325 388.44,188.608 386.281,189.035 384.121,189.89 381.962,191.172 379.563,192.455 377.404,193.309 
				375.244,194.592 372.845,195.447 370.926,196.301 369.006,196.729 366.607,197.584 364.688,197.584 362.289,198.011 
				360.369,198.439 358.93,198.439 357.97,198.439 357.73,199.293 358.21,204.423 357.73,204.85 357.251,205.277 348.853,219.383 
				348.134,220.237 347.174,221.52 345.974,222.375 347.654,223.657 358.93,230.496 368.767,236.907 371.166,238.617 
				375.244,241.181 375.964,243.319 376.684,245.028 377.404,246.311 378.363,247.593 379.323,248.875 380.282,250.157 			"/>
		</g>
		
			<g id="trk2:Itin_raire_de_25_Mingarry_Street__Kelvinside__Glasgow___381_Byres_Rd__Glasgow_G12_8AU__Royaume_Uni" display="inline">
			<polyline id="trk2:p53" fill="none" stroke="#B5CC00" stroke-width="2" stroke-linejoin="round" points="658.825,42 
				644.671,62.089 640.592,68.073 636.033,74.485 647.07,82.178 648.989,83.461 655.227,87.735 661.465,92.009 661.945,92.436 
				657.146,99.275 654.507,102.695 653.068,104.832 651.388,106.969 648.509,109.961 642.512,115.518 639.633,117.655 
				625.717,128.34 608.443,140.736 602.205,145.01 600.526,146.292 598.847,147.575 597.166,149.284 595.488,150.994 
				594.048,152.704 592.849,154.414 591.649,156.551 590.929,157.833 586.611,165.527 578.694,176.212 578.453,176.64 
				578.214,177.067 578.214,177.495 576.295,180.059 569.576,185.188 568.616,186.043 567.178,187.325 562.139,189.463 
				555.902,192.455 549.663,195.019 548.464,195.447 547.505,195.874 545.345,196.301 541.746,197.156 537.428,198.866 
				535.269,199.293 534.309,199.721 533.11,200.148 531.67,201.003 529.99,202.285 529.031,202.713 522.313,209.124 
				518.475,212.971 514.396,216.818 			"/>
		</g>
	</g>
	<g id="trk2:Itin_raire_de_25_Mingarry_Street__Kelvinside__Glasgow___381_Byres_Rd__Glasgow_G12_8AU__Royaume_Uni_1_">
		<g>
			<g id="trk2:p53_9_">
				<polyline fill="none" stroke="#000000" stroke-linejoin="round" points="658.825,42 644.671,62.089 640.592,68.073 
					636.033,74.485 647.07,82.178 648.989,83.461 655.227,87.735 661.465,92.009 661.945,92.436 657.146,99.275 654.507,102.695 
					653.068,104.832 651.388,106.969 648.509,109.961 642.512,115.518 639.633,117.655 625.717,128.34 608.443,140.736 
					602.205,145.01 600.526,146.292 598.847,147.575 597.166,149.284 595.488,150.994 594.048,152.704 592.849,154.414 
					591.649,156.551 590.929,157.833 586.611,165.527 578.694,176.212 578.453,176.64 578.214,177.067 578.214,177.495 
					576.295,180.059 569.576,185.188 568.616,186.043 567.178,187.325 562.139,189.463 555.902,192.455 549.663,195.019 
					548.464,195.447 547.505,195.874 545.345,196.301 541.746,197.156 537.428,198.866 535.269,199.293 534.309,199.721 
					533.11,200.148 531.67,201.003 529.99,202.285 529.031,202.713 522.313,209.124 518.475,212.971 514.396,216.818 
					509.117,213.826 471.691,190.745 461.373,184.333 452.497,198.866 441.7,216.391 435.224,212.116 428.506,208.269 
					409.073,195.874 403.794,192.882 401.635,190.745 400.436,189.035 398.036,186.043 393.958,186.898 392.278,187.325 
					388.44,188.608 386.281,189.035 384.121,189.89 381.962,191.172 379.563,192.455 377.404,193.309 375.244,194.592 
					372.845,195.447 370.926,196.301 369.006,196.729 366.607,197.584 364.688,197.584 362.289,198.011 360.369,198.439 
					358.93,198.439 357.97,198.439 357.73,199.293 358.21,204.423 357.73,204.85 357.251,205.277 348.853,219.383 348.134,220.237 
					347.174,221.52 345.974,222.375 347.654,223.657 358.93,230.496 368.767,236.907 371.166,238.617 375.244,241.181 
					375.964,243.319 376.684,245.028 377.404,246.311 378.363,247.593 379.323,248.875 380.282,250.157 366.607,241.609 
					363.728,245.883 362.049,248.875 357.97,255.287 350.532,268.109 349.093,266.827 342.376,262.98 339.977,268.537 
					339.497,269.818 339.017,271.956 337.817,277.514 334.458,292.045 337.817,277.514 339.017,271.956 339.497,269.818 
					339.977,268.537 342.376,262.98 338.537,260.416 329.18,254.859 327.981,257.424 326.301,265.117 319.104,297.174 
					319.104,299.739 317.904,304.868 311.187,336.07 309.027,345.901 298.711,344.619 297.991,347.611 293.673,349.321 
					291.034,350.176 288.155,351.458 285.995,352.312 284.556,353.168 283.356,353.595 282.636,354.45 282.157,354.877 
					281.437,355.732 280.957,357.442 280.477,358.724 279.518,359.152 278.558,360.006 277.358,360.434 276.159,360.434 
					274.959,360.861 273.76,360.861 272.32,360.861 271.12,360.861 269.921,366.845 256.965,363.853 256.725,365.562 
					256.486,367.273 254.326,377.103 254.086,377.531 253.846,377.958 252.167,379.668 251.687,378.812 250.728,377.103 
					246.169,370.265 243.29,371.119 242.33,371.547 241.131,371.547 236.333,371.119 229.615,370.692 226.256,370.692 
					222.656,370.265 217.859,369.837 207.303,368.128 191.948,365.99 161.479,362.144 153.081,360.861 148.763,360.434 
					135.807,358.724 130.529,357.869 128.13,357.869 129.33,344.192 129.33,342.909 129.09,341.627 128.61,341.2 128.37,340.345 
					127.65,339.917 126.691,339.062 125.731,338.635 124.531,338.208 123.092,338.208 114.935,338.208 113.975,337.78 
					113.255,337.78 109.656,336.07 106.058,334.361 104.618,333.933 103.419,333.506 102.699,333.078 96.461,331.796 
					95.262,331.369 95.022,332.224 93.582,332.224 86.385,326.24 81.346,324.957 80.387,324.957 79.906,325.385 78.707,325.812 
					76.788,327.522 76.308,327.949 75.109,328.804 74.149,329.232 73.189,329.659 71.99,330.086 70.31,330.086 68.631,330.086 
					67.671,330.514 67.191,330.941 66.951,331.796 66.951,332.651 66.951,333.078 67.911,336.925 68.151,337.353 68.151,337.78 
					67.911,338.208 65.992,339.917 66.951,341.2 68.151,342.909 63.593,345.901 62.633,346.756 60.953,347.611 60.234,348.466 
					59.754,349.321 59.274,350.603 59.034,351.458 58.794,351.458 58.554,353.168 58.314,355.305 58.314,357.442 58.314,359.579 
					58.314,361.289 58.554,362.998 58.314,363.853 58.074,364.708 57.595,365.99 56.875,366.845 56.155,368.128 54.476,370.265 
					52.796,372.829 48.238,379.241 43.919,385.652 44.159,386.507 44.399,387.789 44.399,389.926 44.399,391.209 44.399,392.062 
					43.919,395.055 43.44,397.62 43.2,398.902 42.72,400.612 42.24,401.894 42.24,403.604 42,404.459 42.24,405.314 42.48,406.596 
					50.157,436.089 60.474,475.412 86.625,473.275 60.474,475.412 50.157,436.089 42.48,406.596 42.24,405.314 42,404.459 
					42.24,403.604 42.24,401.894 42.72,400.612 43.2,398.902 43.44,397.62 43.919,395.055 44.399,392.062 44.399,391.209 
					44.399,389.926 44.399,387.789 44.159,386.507 43.919,385.652 48.238,379.241 52.796,372.829 54.476,370.265 56.155,368.128 
					56.875,366.845 57.595,365.99 58.074,364.708 58.314,363.853 58.554,362.998 58.314,361.289 58.314,359.579 58.314,357.442 
					58.314,355.305 58.554,353.168 58.794,351.458 59.034,351.458 59.274,350.603 59.754,349.321 60.234,348.466 60.953,347.611 
					62.633,346.756 63.593,345.901 68.151,342.909 66.951,341.2 65.992,339.917 67.911,338.208 68.151,337.78 68.151,337.353 
					67.911,336.925 66.951,333.078 66.951,332.651 66.951,331.796 67.191,330.941 68.151,330.086 70.31,330.086 71.99,330.086 
					73.189,329.659 74.149,329.232 75.109,328.804 76.308,327.949 76.788,327.522 78.707,325.812 79.906,325.385 80.387,324.957 
					81.346,324.957 86.385,326.24 93.582,332.224 95.022,332.224 95.262,331.369 96.461,331.796 97.421,331.796 102.699,333.078 
					103.419,333.506 104.618,333.933 106.058,334.361 109.656,336.07 113.255,337.78 113.975,337.78 114.935,338.208 
					123.092,338.208 124.531,338.208 125.731,338.635 126.691,339.062 127.65,339.917 128.37,340.345 129.33,342.054 
					129.33,343.764 128.13,357.869 130.529,357.869 135.807,358.724 148.763,360.434 153.081,360.861 161.479,362.144 
					191.948,365.99 207.303,368.128 217.859,369.837 222.656,370.265 226.256,370.692 229.615,370.692 236.333,371.119 
					241.851,371.547 243.29,371.119 246.169,370.265 250.728,377.103 251.687,378.812 252.167,379.668 253.846,377.958 
					254.086,377.531 254.326,377.103 256.486,367.273 256.725,365.562 256.965,363.853 269.921,366.845 271.12,360.861 
					272.32,360.861 273.76,360.861 274.959,360.861 276.159,360.434 277.358,360.434 278.558,360.006 279.518,359.152 
					280.477,358.724 280.957,357.442 281.437,355.732 282.157,354.877 282.636,354.45 283.356,353.595 284.556,353.168 
					285.995,352.312 288.155,351.458 291.034,350.176 293.673,349.321 297.991,347.611 298.711,344.619 309.027,345.901 
					311.187,336.07 317.904,304.868 319.104,299.739 319.104,297.174 326.301,265.117 327.981,257.424 329.18,254.859 
					338.537,260.416 342.376,262.98 339.977,268.537 339.497,269.818 339.017,271.956 337.817,277.514 334.458,292.045 
					337.817,277.514 339.017,271.956 339.497,269.818 339.977,268.537 342.376,262.98 349.093,266.827 350.532,268.109 
					357.97,255.287 362.049,248.875 363.728,245.883 366.607,241.609 380.282,250.157 379.323,248.875 378.363,247.593 
					377.404,246.311 376.684,245.028 375.964,243.319 375.244,241.181 371.166,238.617 368.767,236.907 358.93,230.496 
					347.654,223.657 345.974,222.375 347.174,221.52 348.134,220.237 348.853,219.383 357.251,205.277 357.73,204.85 
					358.21,204.423 357.73,199.293 357.97,198.439 358.93,198.439 360.369,198.439 362.289,198.011 364.688,197.584 
					366.607,197.584 369.006,196.729 370.926,196.301 372.845,195.447 375.244,194.592 377.404,193.309 379.563,192.455 
					381.962,191.172 384.121,189.89 386.281,189.035 388.44,188.608 392.278,187.325 393.958,186.898 398.036,186.043 
					400.436,189.035 401.635,190.745 403.794,192.882 409.073,195.874 428.506,208.269 435.224,212.116 441.7,216.391 
					444.82,211.261 452.497,198.866 461.373,184.333 471.691,190.745 509.117,213.826 514.396,216.818 				"/>
			</g>
		</g>
	</g>
</g>
</svg>
