<?xml version="1.0" encoding="utf-8"?>
<!-- Generator: Adobe Illustrator 16.0.0, SVG Export Plug-In . SVG Version: 6.00 Build 0)  -->
<!DOCTYPE svg PUBLIC "-//W3C//DTD SVG 1.1//EN" "http://www.w3.org/Graphics/SVG/1.1/DTD/svg11.dtd">
<svg version="1.1" id="Homoheliotropisme_x5F_Itinerary"
	 xmlns="http://www.w3.org/2000/svg" xmlns:xlink="http://www.w3.org/1999/xlink" x="0px" y="0px" width="841.89px"
	 height="595.275px" viewBox="-70.945 -41.138 841.89 595.275" enable-background="new -70.945 -41.138 841.89 595.275"
	 xml:space="preserve">
<g>
	<g id="trk2:Itin_raire_de_25_Mingarry_Street__Kelvinside__Glasgow___381_Byres_Rd__Glasgow_G12_8AU__Royaume_Uni_4_">
		<polyline id="trk2:p53_4_" fill="none" stroke="#B5CC00" stroke-width="2" stroke-linejoin="round" points="656.825,472.807 
			642.671,452.718 638.592,446.733 634.033,440.322 645.07,432.629 646.989,431.346 653.227,427.072 659.465,422.798 
			659.945,422.371 655.146,415.531 652.507,412.111 651.068,409.975 649.388,407.838 646.509,404.846 640.512,399.289 
			637.633,397.151 623.717,386.467 606.443,374.07 600.205,369.797 598.526,368.515 596.847,367.231 595.166,365.522 
			593.488,363.812 592.048,362.103 590.849,360.393 589.649,358.256 588.929,356.974 584.611,349.279 576.694,338.595 
			576.453,338.166 576.214,337.74 576.214,337.312 574.295,334.748 567.576,329.619 566.616,328.764 565.178,327.481 
			560.139,325.344 553.902,322.352 547.663,319.787 546.464,319.359 545.505,318.933 543.345,318.506 539.746,317.65 
			535.428,315.94 533.269,315.514 532.309,315.086 531.11,314.658 529.67,313.804 527.99,312.521 527.031,312.094 520.313,305.683 
			516.475,301.836 512.396,297.988 507.117,300.98 469.691,324.062 459.373,330.474 450.497,315.94 439.7,298.416 433.224,302.69 
			426.506,306.537 407.073,318.933 401.794,321.925 399.635,324.062 398.436,325.771 396.036,328.764 391.958,327.908 
			390.278,327.481 386.44,326.199 384.281,325.771 382.121,324.916 379.962,323.635 377.563,322.352 375.404,321.498 
			373.244,320.215 370.845,319.359 368.926,318.506 367.006,318.078 364.607,317.223 362.688,317.223 360.289,316.796 
			358.369,316.367 356.93,316.367 355.97,316.367 355.73,315.514 356.21,310.384 355.73,309.957 355.251,309.529 346.853,295.424 
			346.134,294.57 345.174,293.287 343.974,292.432 345.654,291.149 356.93,284.311 366.767,277.899 369.166,276.189 
			373.244,273.625 373.964,271.488 374.684,269.779 375.404,268.496 376.363,267.214 377.323,265.932 378.282,264.649 
			364.607,273.197 361.728,268.924 360.049,265.932 355.97,259.52 348.532,246.697 347.093,247.979 340.376,251.826 337.977,246.27 
			337.497,244.988 337.017,242.851 335.817,237.293 332.458,222.762 335.817,237.293 337.017,242.851 337.497,244.988 
			337.977,246.27 340.376,251.826 336.537,254.391 327.18,259.947 325.981,257.383 324.301,249.689 317.104,217.633 
			317.104,215.067 315.904,209.938 309.187,178.736 307.027,168.905 296.711,170.188 295.991,167.195 291.673,165.485 
			289.034,164.631 286.155,163.349 283.995,162.494 282.556,161.639 281.356,161.212 280.636,160.356 280.157,159.93 
			279.437,159.074 278.957,157.364 278.477,156.083 277.518,155.654 276.558,154.801 275.358,154.373 274.159,154.373 
			272.959,153.945 271.76,153.945 270.32,153.945 269.12,153.945 267.921,147.962 254.965,150.954 254.725,149.244 254.486,147.533 
			252.326,137.704 252.086,137.275 251.846,136.849 250.167,135.139 249.687,135.994 248.728,137.704 244.169,144.542 
			241.29,143.688 240.33,143.26 239.131,143.26 234.333,143.688 227.615,144.114 224.256,144.114 220.656,144.542 215.859,144.97 
			205.303,146.679 189.948,148.816 159.479,152.663 151.081,153.945 146.763,154.373 133.807,156.083 128.529,156.938 
			126.13,156.938 127.33,170.614 127.33,171.897 127.09,173.18 126.61,173.606 126.37,174.462 125.65,174.89 124.691,175.744 
			123.731,176.172 122.531,176.599 121.092,176.599 112.935,176.599 111.975,177.026 111.255,177.026 107.656,178.736 
			104.058,180.445 102.618,180.874 101.419,181.301 100.699,181.729 94.461,183.011 93.262,183.438 93.022,182.583 91.582,182.583 
			84.385,188.566 79.346,189.85 78.387,189.85 77.906,189.422 76.707,188.994 74.788,187.284 74.308,186.857 73.109,186.003 
			72.149,185.574 71.189,185.147 69.99,184.721 68.31,184.721 66.631,184.721 65.671,184.293 65.191,183.865 64.951,183.011 
			64.951,182.155 64.951,181.729 65.911,177.882 66.151,177.454 66.151,177.026 65.911,176.599 63.992,174.89 64.951,173.606 
			66.151,171.897 61.593,168.905 60.633,168.051 58.953,167.195 58.234,166.341 57.754,165.485 57.274,164.204 57.034,163.349 
			56.794,163.349 56.554,161.639 56.314,159.502 56.314,157.364 56.314,155.228 56.314,153.518 56.554,151.809 56.314,150.954 
			56.074,150.099 55.595,148.816 54.875,147.962 54.155,146.679 52.476,144.542 50.796,141.978 46.238,135.565 41.919,129.154 
			42.159,128.3 42.399,127.018 42.399,124.881 42.399,123.598 42.399,122.744 41.919,119.752 41.44,117.187 41.2,115.904 
			40.72,114.194 40.24,112.913 40.24,111.203 40,110.348 40.24,109.492 40.48,108.211 48.157,78.718 58.474,39.395 84.625,41.531 		
			"/>
	</g>
</g>
</svg>
